<svg width="18" height="18" viewBox="0 0 18 18" fill="none" xmlns="http://www.w3.org/2000/svg">
<path d="M17.3408 6.78572L11.652 1.09622C10.9479 0.394211 9.99426 0 9.00001 0C8.00576 0 7.05208 0.394211 6.34801 1.09622L0.659259 6.78572C0.449578 6.99406 0.283336 7.24194 0.170171 7.51501C0.0570054 7.78807 -0.0008328 8.08088 9.05961e-06 8.37647V15.7392C9.05961e-06 16.336 0.237062 16.9083 0.659019 17.3302C1.08098 17.7522 1.65327 17.9892 2.25001 17.9892H15.75C16.3467 17.9892 16.919 17.7522 17.341 17.3302C17.763 16.9083 18 16.336 18 15.7392V8.37647C18.0009 8.08088 17.943 7.78807 17.8298 7.51501C17.7167 7.24194 17.5504 6.99406 17.3408 6.78572ZM11.25 16.4892H6.75001V13.5387C6.75001 12.942 6.98706 12.3697 7.40902 11.9477C7.83098 11.5258 8.40327 11.2887 9.00001 11.2887C9.59675 11.2887 10.169 11.5258 10.591 11.9477C11.013 12.3697 11.25 12.942 11.25 13.5387V16.4892ZM16.5 15.7392C16.5 15.9381 16.421 16.1289 16.2803 16.2696C16.1397 16.4102 15.9489 16.4892 15.75 16.4892H12.75V13.5387C12.75 12.5442 12.3549 11.5903 11.6517 10.8871C10.9484 10.1838 9.99457 9.78872 9.00001 9.78872C8.00545 9.78872 7.05162 10.1838 6.34836 10.8871C5.6451 11.5903 5.25001 12.5442 5.25001 13.5387V16.4892H2.25001C2.0511 16.4892 1.86033 16.4102 1.71968 16.2696C1.57903 16.1289 1.50001 15.9381 1.50001 15.7392V8.37647C1.5007 8.1777 1.57965 7.98721 1.71976 7.84622L7.40851 2.15897C7.83128 1.73817 8.40351 1.50193 9.00001 1.50193C9.59651 1.50193 10.1687 1.73817 10.5915 2.15897L16.2803 7.84847C16.4198 7.9889 16.4987 8.17848 16.5 8.37647V15.7392Z" fill="white"/>
</svg>
